<?xml version="1.0" encoding="iso-8859-1"?>
<!-- Generator: Adobe Illustrator 19.0.0, SVG Export Plug-In . SVG Version: 6.00 Build 0)  -->
<svg version="1.1" id="Layer_1" xmlns="http://www.w3.org/2000/svg" xmlns:xlink="http://www.w3.org/1999/xlink" x="0px" y="0px"
	 viewBox="0 0 511.999 511.999" style="enable-background:new 0 0 511.999 511.999;" xml:space="preserve">
<g>
	<g>
		<path d="M501.017,352.082c-6.961-4.08-15.587-4.063-22.533,0.043c-19.513,11.538-39.711,21.423-60.398,29.669l-26.61-60.438
			c7.91-36.107,2.631-66.426-6.484-89.784c1.11-1.976,2.152-3.982,3.121-6.018l39.639-72.562l1.13,8.615
			c1.683,12.836,10.651,23.534,22.997,27.433l0.061,0.019c4.052,1.279,8.462,0.765,12.123-1.39c3.661-2.155,6.241-5.757,7.095-9.919
			c7.486-36.508,22.758-49.933,11.715-81.407l24.556-31.373c1.57-2.006,1.761-4.765,0.483-6.968
			c-1.278-2.203-3.769-3.407-6.29-3.038l-40.431,5.906c-3.793-3.846-7.824-7.174-11.983-9.921l3.409-18.223
			c0.393-2.098-0.112-4.264-1.393-5.972c-1.279-1.708-3.217-2.799-5.341-3.014c-16.303-1.649-53.103-0.102-73.857,42.175
			c-18.482,37.65-36.579,54.227-45.672,60.741c-3.253,2.331-4.154,6.783-2.054,10.19l5.139,8.334
			c-3.433-0.612-6.948-1.171-10.524-1.683c-1.334,49.864-37.208,89.967-81.145,89.967c-40.656,0-74.425-34.331-80.3-78.965
			c-16.875,6.397-28.538,14.852-31.609,25.373c-22.1-5.571-57.209-6.581-87.091,27.79c-4.877,5.609-4.918,13.955-0.079,19.597
			l36.54,42.594c2.521,2.938,6.34,4.429,10.185,3.973c3.845-0.456,7.207-2.798,8.972-6.243c3.898-7.607,9.415-17.091,16.6-26.608
			c-3.656,19.428-4.101,42.507,2.809,68.018l-30.012,68.164c-16.914-7.293-33.476-15.691-49.566-25.224
			c-7.007-4.151-15.69-4.245-22.768-0.217C4.371,355.746,0,363.263,0,371.407v0.02c0,7.358,3.598,14.285,9.61,18.529
			c88.722,62.622,175.956,98.703,246.904,98.703c71.877,0,157.207-36.16,245.893-98.909c5.853-4.141,9.411-10.803,9.585-17.969
			v-0.017C512.19,363.697,507.979,356.162,501.017,352.082z M116.531,389.739l39.196-60.134
			c14.53-6.054,31.403-18.725,45.182-44.694c18.171,7.319,38.622,11.452,60.269,11.452c14.642,0,28.731-1.905,41.948-5.388
			c14.383,19.702,29.465,30.257,42.934,35.669l42.766,65.611C300.256,420.419,204.682,419.58,116.531,389.739z"/>
	</g>
</g>
<g>
	<g>
		<path d="M285.593,140.273c-32.487-1.782-66.881,0.026-95.474,5.422c2.077,30.422,22.646,54.393,47.648,54.393
			c26.376,0,47.834-26.674,47.834-59.46C285.601,140.51,285.594,140.392,285.593,140.273z"/>
	</g>
</g>
<g>
</g>
<g>
</g>
<g>
</g>
<g>
</g>
<g>
</g>
<g>
</g>
<g>
</g>
<g>
</g>
<g>
</g>
<g>
</g>
<g>
</g>
<g>
</g>
<g>
</g>
<g>
</g>
<g>
</g>
</svg>
